<svg xmlns="http://www.w3.org/2000/svg" width="16.644" height="16.41" viewBox="0 0 16.644 16.41">
  <g id="edit_10_" data-name="edit (10)" transform="translate(0 -2.612)">
    <g id="Group_6719" data-name="Group 6719" transform="translate(0 2.612)">
      <g id="Group_6718" data-name="Group 6718" transform="translate(0 0)">
        <path id="Path_25440" data-name="Path 25440" d="M232.3,4.675a2.04,2.04,0,0,0-.586-1.453,2.11,2.11,0,0,0-1.453-.61,2.016,2.016,0,0,0-1.43.586L231.716,6.1A1.922,1.922,0,0,0,232.3,4.675Z" transform="translate(-218.565 -2.612)" fill="#0072c8"/>
        <rect id="Rectangle_2766" data-name="Rectangle 2766" width="4.078" height="9.449" transform="translate(9.611 1.266) rotate(45)" fill="#0072c8"/>
        <path id="Path_25441" data-name="Path 25441" d="M42.974,200.621l-.656,2.977,2.977-.656Z" transform="translate(-40.419 -191.736)" fill="#0072c8"/>
        <path id="Path_25442" data-name="Path 25442" d="M16.175,347.429H.469a.469.469,0,0,0,0,.938H16.175a.469.469,0,0,0,0-.938Z" transform="translate(0 -331.957)" fill="#0072c8"/>
      </g>
    </g>
  </g>
</svg>
