<svg width="26" height="23" viewBox="0 0 26 23" fill="none" xmlns="http://www.w3.org/2000/svg">
<path d="M21.8702 12.6451H19.8936C20.095 13.1994 20.2051 13.7976 20.2051 14.4211V21.928C20.2051 22.188 20.1601 22.4375 20.0782 22.6695H23.346C24.5668 22.6695 25.5598 21.6716 25.5598 20.445V16.3526C25.5599 14.3083 23.9047 12.6451 21.8702 12.6451Z" fill="#8F8F8F"/>
<path d="M5.35478 14.4211C5.35478 13.7975 5.46486 13.1994 5.66634 12.6451H3.68967C1.65518 12.6451 0 14.3083 0 16.3527V20.445C0 21.6716 0.99308 22.6696 2.2138 22.6696H5.48173C5.39981 22.4374 5.35478 22.188 5.35478 21.928V14.4211Z" fill="#8F8F8F"/>
<path d="M15.0397 10.7138H10.5207C8.48624 10.7138 6.83105 12.377 6.83105 14.4214V21.9283C6.83105 22.3378 7.16143 22.6698 7.56899 22.6698H17.9914C18.399 22.6698 18.7293 22.3379 18.7293 21.9283V14.4214C18.7293 12.377 17.0742 10.7138 15.0397 10.7138Z" fill="#8F8F8F"/>
<path d="M12.7805 0.883789C10.3338 0.883789 8.34326 2.884 8.34326 5.34266C8.34326 7.01035 9.25926 8.46684 10.612 9.23153C11.2537 9.59421 11.9934 9.80149 12.7805 9.80149C13.5677 9.80149 14.3074 9.59421 14.9491 9.23153C16.3019 8.46684 17.2178 7.0103 17.2178 5.34266C17.2178 2.88405 15.2273 0.883789 12.7805 0.883789Z" fill="#8F8F8F"/>
<path d="M4.98843 5.03893C3.15857 5.03893 1.66992 6.5348 1.66992 8.37354C1.66992 10.2123 3.15857 11.7082 4.98843 11.7082C5.45259 11.7082 5.89459 11.6115 6.29611 11.4379C6.99031 11.1375 7.56271 10.6059 7.9169 9.93999C8.1655 9.47262 8.30693 8.93943 8.30693 8.37354C8.30693 6.53485 6.81828 5.03893 4.98843 5.03893Z" fill="#8F8F8F"/>
<path d="M20.5724 5.03893C18.7426 5.03893 17.2539 6.5348 17.2539 8.37354C17.2539 8.93948 17.3953 9.47267 17.6439 9.93999C17.9981 10.606 18.5705 11.1376 19.2647 11.4379C19.6662 11.6115 20.1082 11.7082 20.5724 11.7082C22.4023 11.7082 23.8909 10.2123 23.8909 8.37354C23.8909 6.5348 22.4023 5.03893 20.5724 5.03893Z" fill="#8F8F8F"/>
</svg>
