<svg width="22" height="17" viewBox="0 0 22 17" fill="none" xmlns="http://www.w3.org/2000/svg">
<path d="M10.75 16.5001C7.7608 16.5997 4.84813 15.5439 2.617 13.5521C1.82695 12.8302 1.1661 11.9786 0.663 11.0341C0.268998 10.334 0.0420954 9.55234 0 8.7501C0.0420954 7.94786 0.268998 7.16619 0.663 6.4661C1.1658 5.52193 1.82631 4.67067 2.616 3.9491C4.84723 1.9567 7.76032 0.900551 10.75 1.0001C13.7397 0.900655 16.6527 1.95679 18.884 3.9491C19.6736 4.67037 20.3341 5.52129 20.837 6.4651C21.2311 7.16549 21.4581 7.94752 21.5 8.7501C21.4579 9.55234 21.231 10.334 20.837 11.0341C20.3341 11.9782 19.6736 12.8295 18.884 13.5511C16.6527 15.5434 13.7397 16.5995 10.75 16.5001ZM10.75 2.5001C8.13792 2.40376 5.58911 3.31735 3.633 5.0511C2.97035 5.65532 2.41572 6.36823 1.993 7.1591C1.71502 7.64731 1.54678 8.19025 1.5 8.7501C1.54678 9.30996 1.71502 9.85289 1.993 10.3411C2.41464 11.1327 2.96941 11.8458 3.633 12.4491C5.58911 14.1829 8.13792 15.0964 10.75 15.0001C13.3619 15.0963 15.9105 14.1823 17.866 12.4481C18.5302 11.845 19.0853 11.1319 19.507 10.3401C19.7848 9.85219 19.9531 9.30961 20 8.7501C19.9532 8.19025 19.785 7.64731 19.507 7.1591C19.0842 6.36802 18.5292 5.65508 17.866 5.0511C15.9104 3.31723 13.3618 2.40361 10.75 2.5001ZM10.75 12.5001C10.0083 12.5001 9.2833 12.2802 8.66661 11.8681C8.04993 11.4561 7.56928 10.8704 7.28545 10.1852C7.00162 9.49994 6.92736 8.74594 7.07206 8.01851C7.21675 7.29108 7.5739 6.6229 8.09835 6.09845C8.6228 5.574 9.29098 5.21685 10.0184 5.07216C10.7458 4.92746 11.4998 5.00172 12.1851 5.28555C12.8703 5.56938 13.456 6.05003 13.868 6.66671C14.2801 7.2834 14.5 8.00842 14.5 8.7501C14.4989 9.74434 14.1035 10.6975 13.4005 11.4006C12.6974 12.1036 11.7442 12.499 10.75 12.5001ZM10.75 6.5001C10.305 6.5001 9.86998 6.63206 9.49997 6.87929C9.12996 7.12653 8.84157 7.47793 8.67127 7.88906C8.50097 8.3002 8.45642 8.7526 8.54323 9.18905C8.63005 9.62551 8.84434 10.0264 9.15901 10.3411C9.47368 10.6558 9.87459 10.8701 10.311 10.9569C10.7475 11.0437 11.1999 10.9991 11.611 10.8288C12.0222 10.6585 12.3736 10.3701 12.6208 10.0001C12.868 9.63012 13 9.19511 13 8.7501C12.9992 8.15361 12.7619 7.58177 12.3401 7.15999C11.9183 6.7382 11.3465 6.5009 10.75 6.5001Z" fill="#4E7667" fill-opacity="0.3"/>
</svg>
