<svg width="22" height="22" viewBox="0 0 22 22" fill="none" xmlns="http://www.w3.org/2000/svg">
<path d="M19.2496 4.12503V11.0001C19.2496 13.2744 17.3989 15.1251 15.1246 15.1251H9.01266L5.98901 17.7156C6.26952 17.8119 6.56377 17.8751 6.87452 17.8751H13.4952L18.1139 21.8352C18.2417 21.9438 18.4012 22.0002 18.5621 22.0002C18.6597 22.0002 18.7587 21.9796 18.8495 21.9369C19.0942 21.8256 19.2496 21.5808 19.2496 21.3127V17.8751C20.7663 17.8751 21.9996 16.6418 21.9996 15.1251V6.87505C21.9996 5.35842 20.7663 4.12503 19.2496 4.12503Z" fill="white"/>
<path d="M15.1251 0H2.75002C1.23338 0 0 1.23338 0 2.75002V11.0001C0 12.5167 1.23338 13.7501 2.75002 13.7501V17.1876C2.75002 17.4558 2.90677 17.7005 3.15015 17.8119C3.24228 17.8545 3.3399 17.8751 3.43753 17.8751C3.5984 17.8751 3.75791 17.8188 3.88441 17.7101L8.50444 13.7501H15.1251C16.6418 13.7501 17.8751 12.5167 17.8751 11.0001V2.75002C17.8751 1.23338 16.6418 0 15.1251 0ZM10.3126 8.25007H4.81254C4.43304 8.25007 4.12503 7.94206 4.12503 7.56256C4.12503 7.18306 4.43304 6.87506 4.81254 6.87506H10.3126C10.6921 6.87506 11.0001 7.18306 11.0001 7.56256C11.0001 7.94206 10.6921 8.25007 10.3126 8.25007ZM13.0626 5.50004H4.81254C4.43304 5.50004 4.12503 5.19204 4.12503 4.81254C4.12503 4.43304 4.43304 4.12503 4.81254 4.12503H13.0626C13.4421 4.12503 13.7501 4.43304 13.7501 4.81254C13.7501 5.19204 13.4421 5.50004 13.0626 5.50004Z" fill="white"/>
</svg>
