<svg xmlns="http://www.w3.org/2000/svg" width="26" height="28" viewBox="0 0 26 28">
  <g id="Group_7190" data-name="Group 7190" transform="translate(-9622 -17857)">
    <g id="bell" transform="translate(9620 17861)">
      <path id="Path_26251" data-name="Path 26251" d="M21.379,16.913A6.7,6.7,0,0,1,19,11.788V9a7.006,7.006,0,0,0-6-6.92V1a1,1,0,0,0-2,0V2.08A7,7,0,0,0,5,9v2.788a6.705,6.705,0,0,1-2.388,5.133A1.75,1.75,0,0,0,3.75,20h16.5a1.75,1.75,0,0,0,1.129-3.087Z" fill="#1b1574"/>
      <path id="Path_26252" data-name="Path 26252" d="M12,24a3.756,3.756,0,0,0,3.674-3H8.326A3.756,3.756,0,0,0,12,24Z" fill="#1d2b8c"/>
    </g>
    <g id="Ellipse_2821" data-name="Ellipse 2821" transform="translate(9634 17857)" fill="#fff" stroke="#1b1574" stroke-width="1">
      <circle cx="7" cy="7" r="7" stroke="none"/>
      <circle cx="7" cy="7" r="6.5" fill="none"/>
    </g>
  </g>
</svg>
