<svg width="16" height="16" viewBox="0 0 16 16" fill="none" xmlns="http://www.w3.org/2000/svg">
<path d="M8.00003 0C3.58174 0 0 3.58174 0 8.00003C0 12.4183 3.58174 16.0001 8.00003 16.0001C12.4183 16.0001 16.0001 12.4183 16.0001 8.00003C15.9954 3.58371 12.4164 0.004721 8.00003 0ZM12.4041 5.54688L6.68973 11.2612C6.46657 11.4843 6.10486 11.4843 5.88174 11.2612L3.596 8.97547C3.36899 8.75622 3.36269 8.39448 3.58194 8.16747C3.80118 7.94046 4.16292 7.93417 4.38993 8.15341C4.39469 8.15803 4.39937 8.16268 4.40399 8.16747L6.28573 10.0492L11.5961 4.73888C11.8231 4.51964 12.1848 4.52594 12.4041 4.75291C12.6179 4.97437 12.6179 5.32543 12.4041 5.54688Z" fill="#4CB71B"/>
</svg>
