<svg width="34" height="36" viewBox="0 0 34 36" fill="none" xmlns="http://www.w3.org/2000/svg">
<path d="M5.54053 8.32197C5.54053 12.9159 9.275 16.6511 13.8625 16.6511C18.4572 16.6511 22.1917 12.9159 22.1917 8.32197C22.1917 3.73453 18.4572 0 13.8625 0C9.275 -8.25216e-08 5.54053 3.73453 5.54053 8.32197Z" fill="white"/>
<path d="M25.1882 21.0811C23.7116 18.9809 21.7117 17.353 19.3965 16.3574C17.8267 17.4462 15.92 18.0849 13.8628 18.0849C11.8128 18.0849 9.91327 17.4462 8.34348 16.3645C3.44058 18.4999 0 23.3956 0 29.0726C0 29.4747 0.322551 29.7894 0.716775 29.7894H18.8445C18.8159 29.5536 18.8087 29.3171 18.8087 29.0726C18.8087 25.1804 21.5397 21.9125 25.1882 21.0811Z" fill="white"/>
<path d="M27 22C25.6155 22 24.2622 22.4105 23.111 23.1797C21.9599 23.9489 21.0627 25.0421 20.5328 26.3212C20.003 27.6003 19.8644 29.0078 20.1345 30.3656C20.4046 31.7235 21.0713 32.9708 22.0503 33.9497C23.0292 34.9287 24.2765 35.5954 25.6344 35.8655C26.9922 36.1356 28.3997 35.997 29.6788 35.4672C30.9579 34.9373 32.0511 34.0401 32.8203 32.889C33.5895 31.7378 34 30.3845 34 29C33.9978 27.1442 33.2596 25.365 31.9473 24.0527C30.635 22.7404 28.8558 22.0022 27 22ZM29.6995 30.8003C29.7602 30.859 29.8087 30.9292 29.8421 31.0068C29.8754 31.0845 29.893 31.168 29.8937 31.2525C29.8944 31.337 29.8783 31.4208 29.8463 31.499C29.8143 31.5772 29.7671 31.6482 29.7073 31.708C29.6476 31.7677 29.5765 31.815 29.4983 31.847C29.4201 31.879 29.3363 31.8951 29.2518 31.8943C29.1673 31.8936 29.0838 31.876 29.0062 31.8427C28.9286 31.8093 28.8583 31.7609 28.7996 31.7001L27 29.8998L25.2004 31.7001C25.0803 31.816 24.9196 31.8801 24.7527 31.8787C24.5859 31.8772 24.4263 31.8103 24.3083 31.6923C24.1903 31.5744 24.1234 31.4147 24.1219 31.2479C24.1205 31.081 24.1846 30.9203 24.3005 30.8003L26.1002 29L24.3005 27.1997C24.2398 27.141 24.1913 27.0708 24.1579 26.9932C24.1246 26.9155 24.107 26.832 24.1063 26.7475C24.1056 26.663 24.1217 26.5792 24.1537 26.501C24.1857 26.4228 24.2329 26.3518 24.2927 26.292C24.3524 26.2323 24.4235 26.185 24.5017 26.153C24.5799 26.121 24.6637 26.1049 24.7482 26.1057C24.8327 26.1064 24.9162 26.1239 24.9938 26.1573C25.0714 26.1906 25.1417 26.2391 25.2004 26.2999L27 28.1002L28.7996 26.2999C28.8583 26.2391 28.9286 26.1906 29.0062 26.1573C29.0838 26.1239 29.1673 26.1064 29.2518 26.1057C29.3363 26.1049 29.4201 26.121 29.4983 26.153C29.5765 26.185 29.6476 26.2323 29.7073 26.292C29.7671 26.3518 29.8143 26.4228 29.8463 26.501C29.8783 26.5792 29.8944 26.663 29.8937 26.7475C29.893 26.832 29.8754 26.9155 29.8421 26.9932C29.8087 27.0708 29.7602 27.141 29.6995 27.1997L27.8998 29L29.6995 30.8003Z" fill="white"/>
</svg>
