<svg xmlns="http://www.w3.org/2000/svg" width="56.383" height="56.383" viewBox="0 0 56.383 56.383">
  <g id="block-user" transform="translate(-1.25 -1.25)">
    <path id="Path_26249" data-name="Path 26249" d="M25.707,13.25A12.457,12.457,0,1,0,38.163,25.707,12.457,12.457,0,0,0,25.707,13.25ZM17.184,25.707a8.533,8.533,0,0,1,8.523-8.523,8.44,8.44,0,0,1,4.452,1.289L18.473,30.159a8.44,8.44,0,0,1-1.289-4.452Zm8.523,8.523a8.44,8.44,0,0,1-4.452-1.289L32.94,21.254a8.44,8.44,0,0,1,1.289,4.452,8.533,8.533,0,0,1-8.523,8.523Z" transform="translate(19.469 19.469)" fill="#484848"/>
    <circle id="Ellipse_2820" data-name="Ellipse 2820" cx="12.457" cy="12.457" r="12.457" transform="translate(9.117 1.25)" fill="#484848"/>
    <path id="Path_26250" data-name="Path 26250" d="M38.856,15.394a18.089,18.089,0,0,0-5.35-5.114,16.363,16.363,0,0,1-11.932,5.166A16.363,16.363,0,0,1,9.642,10.28a17.581,17.581,0,0,0-8.392,15v5.245a1.981,1.981,0,0,0,1.967,1.967h25.7a16.259,16.259,0,0,1,9.939-17.1Z" transform="translate(0 14.651)" fill="#484848"/>
  </g>
</svg>
