<svg id="calendar" xmlns="http://www.w3.org/2000/svg" width="13.334" height="13.334" viewBox="0 0 13.334 13.334">
  <path id="Path_72" data-name="Path 72" d="M11.615,1.042h-1.2V.417a.417.417,0,0,0-.833,0v.625H3.75V.417a.417.417,0,0,0-.833,0v.625h-1.2A1.721,1.721,0,0,0,0,2.761v8.855a1.721,1.721,0,0,0,1.719,1.719h9.9a1.721,1.721,0,0,0,1.719-1.719V2.761A1.721,1.721,0,0,0,11.615,1.042ZM12.5,11.615a.885.885,0,0,1-.885.885h-9.9a.885.885,0,0,1-.885-.885v-6.9a.13.13,0,0,1,.13-.13H12.37a.13.13,0,0,1,.13.13Z"/>
</svg>
