<svg width="26" height="26" viewBox="0 0 26 26" fill="none" xmlns="http://www.w3.org/2000/svg">
<path d="M24.5556 18.0556C22.7572 18.0556 21.0167 17.7667 19.3989 17.2322C18.9006 17.0733 18.33 17.1889 17.9328 17.5862L14.7551 20.7712C10.6601 18.6912 7.31616 15.3472 5.23616 11.2595L8.41391 8.06725C8.81116 7.67 8.92667 7.09949 8.76782 6.60116C8.2334 4.9834 7.94449 3.24282 7.94449 1.44449C7.94442 0.642755 7.30167 0 6.5 0H1.44442C0.65 0 0 0.642755 0 1.44442C0 15.0078 10.9922 26 24.5556 26C25.3572 26 26 25.3572 26 24.5556V19.5C26 18.6983 25.3572 18.0556 24.5556 18.0556Z" fill="white"/>
</svg>
