<svg width="39" height="21" viewBox="0 0 39 21" fill="none" xmlns="http://www.w3.org/2000/svg">
<path d="M13.7131 20.0547H16.7225L17.509 19.2258V16.6206H33.274V19.4231L34.2656 20.6075H37.0355L37.7194 19.4231L37.4749 13.0597L36.8295 8.09302H37.7187C37.7187 8.09302 38.0882 7.69318 38.0882 7.25889C38.0882 6.82461 37.7187 6.35589 37.7187 6.35589H34.9495C34.9495 6.35589 34.2993 3.66841 33.5128 2.07944C32.7263 0.490469 31.8033 0 31.8033 0H19.8002C19.8002 0 18.8427 0.345478 18.0218 1.93445C17.2009 3.52342 16.5172 6.35589 16.5172 6.35589H13.4396C13.3494 6.4254 13.273 6.51621 13.2155 6.62232C13.158 6.72842 13.1207 6.84741 13.106 6.97141C13.106 7.32663 13.4396 7.77722 13.4396 7.77722H14.6023L13.5885 12.8613L13.166 19.2256L13.7131 20.0547Z" fill="white"/>
<path d="M31.4877 1.67928L33.0034 6.52852L32.1979 7.79364L19.0417 7.95642L17.8703 6.99989L19.3091 1.52167L31.4877 1.67928Z" fill="url(#paint0_linear_165_12)"/>
<path d="M15.9263 5.51911H15.0846L14.1112 2.39124H11.0336V8.52534H13.5588L13.059 16.2994H9.9813L10.3497 1.54102H14.769L15.9263 5.51911Z" fill="white"/>
<path d="M29.7132 6.83859C28.9545 6.83859 28.3395 6.12861 28.3395 5.25279C28.3395 4.37698 28.9545 3.66699 29.7132 3.66699C30.4719 3.66699 31.0869 4.37698 31.0869 5.25279C31.0869 6.12861 30.4719 6.83859 29.7132 6.83859Z" fill="white"/>
<path d="M24.2184 2.30786H26.3771C26.7022 2.30786 26.9658 2.61214 26.9658 2.98749C26.9658 3.36284 26.7022 3.66712 26.3771 3.66712H24.2184C23.8933 3.66712 23.6297 3.36284 23.6297 2.98749C23.6297 2.61214 23.8933 2.30786 24.2184 2.30786Z" fill="white"/>
<path d="M32.5585 14.7253C31.5289 14.7253 30.6942 13.9646 30.6942 13.0262C30.6942 12.0878 31.5289 11.3271 32.5585 11.3271C33.5882 11.3271 34.4229 12.0878 34.4229 13.0262C34.4229 13.9646 33.5882 14.7253 32.5585 14.7253Z" fill="url(#paint1_linear_165_12)"/>
<path d="M18.6254 14.7253C17.5958 14.7253 16.7611 13.9646 16.7611 13.0262C16.7611 12.0878 17.5958 11.3271 18.6254 11.3271C19.6551 11.3271 20.4897 12.0878 20.4897 13.0262C20.4897 13.9646 19.6551 14.7253 18.6254 14.7253Z" fill="url(#paint2_linear_165_12)"/>
<path d="M23.0409 11.5537H28.1432C28.4684 11.5537 28.7319 11.858 28.7319 12.2333V13.5926C28.7319 13.9679 28.4684 14.2722 28.1432 14.2722H23.0409C22.7158 14.2722 22.4522 13.9679 22.4522 13.5926V12.2333C22.4522 11.858 22.7158 11.5537 23.0409 11.5537Z" fill="url(#paint3_linear_165_12)"/>
<path d="M2.18997 4.8014C1.42112 4.8014 0.797462 4.08153 0.797462 3.19354C0.797462 2.30581 1.42112 1.58594 2.18997 1.58594C2.95844 1.58594 3.58252 2.30581 3.58252 3.19354C3.58252 4.08153 2.95844 4.8014 2.18997 4.8014Z" fill="white"/>
<path d="M0.0309873 8.36549C0.137753 7.98469 0.490461 7.77617 0.822458 7.89874L2.1766 8.40525L1.96949 6.58262C1.92905 6.22494 2.01275 5.86324 2.20327 5.57702C2.3939 5.29113 2.6751 5.10414 2.98471 5.0573C3.25048 5.01694 3.50708 5.08314 3.72087 5.22985C3.88557 5.34285 6.42423 7.19116 6.42423 7.19116C6.58444 7.31101 6.68908 7.5081 6.70822 7.72687C6.72752 7.94595 6.65919 8.16313 6.52362 8.31748L4.76903 10.3089L4.95055 11.9064L5.35516 14.2891L7.29435 16.9408C7.56657 17.3135 7.52597 17.8709 7.20299 18.1855C7.05948 18.3253 6.88387 18.3937 6.70982 18.3937C6.49203 18.3937 6.27591 18.2872 6.12425 18.0801L4.05765 15.2534C3.97379 15.1388 3.9167 15.0011 3.89154 14.8538L3.58209 13.0311L2.94054 14.0601L2.74346 18.1142C2.72104 18.5847 2.38321 18.9482 1.98024 18.9482C1.96579 18.9482 1.95143 18.9479 1.93698 18.947C1.51483 18.9196 1.19185 18.5027 1.21597 18.0156L1.42524 13.704C1.4331 13.5358 1.48285 13.3741 1.56766 13.2373L2.54654 11.6669L2.35713 9.99836L0.43508 9.27962C0.104656 9.15603 -0.0763354 8.74693 0.0309873 8.36549ZM5.08291 7.9172L4.44297 7.4388L4.56418 8.50569L5.08291 7.9172Z" fill="white"/>
<defs>
<linearGradient id="paint0_linear_165_12" x1="25.5037" y1="1.60184" x2="25.4204" y2="8.03897" gradientUnits="userSpaceOnUse">
<stop stop-color="#A0E5FD"/>
<stop offset="1" stop-color="#5C9CF5"/>
</linearGradient>
<linearGradient id="paint1_linear_165_12" x1="32.5585" y1="11.3271" x2="32.5585" y2="14.7253" gradientUnits="userSpaceOnUse">
<stop stop-color="#A0E5FD"/>
<stop offset="1" stop-color="#5C9CF5"/>
</linearGradient>
<linearGradient id="paint2_linear_165_12" x1="18.6254" y1="11.3271" x2="18.6254" y2="14.7253" gradientUnits="userSpaceOnUse">
<stop stop-color="#A0E5FD"/>
<stop offset="1" stop-color="#5C9CF5"/>
</linearGradient>
<linearGradient id="paint3_linear_165_12" x1="25.5921" y1="11.5537" x2="25.5921" y2="14.2722" gradientUnits="userSpaceOnUse">
<stop stop-color="#A0E5FD"/>
<stop offset="1" stop-color="#5C9CF5"/>
</linearGradient>
</defs>
</svg>
