<svg xmlns="http://www.w3.org/2000/svg" width="216.583" height="168.262" viewBox="0 0 216.583 168.262">
  <g id="Group_1467" data-name="Group 1467" transform="translate(-2285.045 -368.407)" opacity="0.289" style="mix-blend-mode: luminosity;isolation: isolate">
    <g id="Group_1094" data-name="Group 1094" transform="translate(2285.045 368.407)">
      <path id="Path_8462" data-name="Path 8462" d="M2310.653,529.377c-4.588-3.156-9.467-5.97-13.7-9.545-7.066-5.967-13.308-13.142-11.632-23.063,1.988-11.771,7.2-21.868,19.8-26.079a19.675,19.675,0,0,0,11.476-9.577c5.668-10.5,7.564-22.157,10.383-33.515a94.21,94.21,0,0,1,3.989-12.64c3.271-8.087,9.136-12.495,18.19-11.952,1.872.113,3.757.015,5.636.014,1.882,2.029.707,4.226.217,6.293-1.647,6.977-3.472,13.911-5.161,20.878-.307,1.267-1.747,3.128,1.206,3.28,4.284-.082,8.5.122,12.422,2.114,4.306,7.794,4.559,16.348,4.042,24.844-.527,8.662-1.961,17.271-1.23,25.99-4.059,12.8-7.952,25.661-12.336,38.363-.656,1.9-1.134,3.976-3.018,5.2-7.584,2.3-9.138,1.572-11.722-5.441-3.118-5.2-8.791-8.664-10.371-15.418-1.794,2.8-3.651,2.157-5.138.027-3.119-4.467-5.789-9.17-6.7-14.188-3.714,7.6-7.595,15.726-5.263,25.166.373,3.253,3.265,6.022,1.86,9.614A2.288,2.288,0,0,1,2310.653,529.377Z" transform="translate(-2285.045 -367.453)" fill="#e2f4fe"/>
      <path id="Path_8463" data-name="Path 8463" d="M2421.973,434.369c2.584-1.21,2.975-4.07,4.442-6.1,5.943-8.225,14.252-9.321,23.264-8.021,18.993,2.743,24.176,18.207,22.088,33.613-.433,3.2-1.1,6.363-1.667,9.543-3.338-.991-3.741-3.867-4.273-6.252a92,92,0,0,1-13.727,29.757c-1.175,1.649-2.208,3.5-4.267,4.3-3.643-1.048-3.385-3.961-3.432-6.613-1.235,1.586-1.623,4.4-4.623,4.618-1.9-.562-2.464-2.179-3.017-3.806-5.414-15.9-10.574-31.882-14.957-48.1A3.362,3.362,0,0,1,2421.973,434.369Z" transform="translate(-2281.275 -366.988)" fill="#e2f4fe"/>
      <path id="Path_8464" data-name="Path 8464" d="M2423.524,435.091c5.435,16.89,10.9,33.771,16.255,50.685.469,1.48.516,3.028,2.134,3.793.859,1.582.158,3.006-.546,4.365s-1.428,3-3.244,2.841c-1.712-.15-1.693-1.913-2.079-3.174q-5.74-18.778-11-37.692c-2.1-8.5-6.092-16.383-8.141-24.9-2.269-9.57-6.347-18.676-7.614-27.9.364-1.323-.584-.563.1-.612.271-.02.168.139.156.488-.068,2.043-1.459,2.486-3.093,2.674-.17.02-.41-.054-.5.034-.627.618.564.444.412.908a55.584,55.584,0,0,0,3.676,17.1,9.707,9.707,0,0,1,.549,2.185c1.584,5.113,2.224,10.492,4.383,15.434,7.938,1.406,7.826,8.534,10.005,14.031.5,2.822,1.434,5.928-2.991,5.238,3.429-1.16,5.185.639,5.6,4.314.516,4.538,4.244,8.581,2.091,13.532,4.8,3.508,3.9,9.382,5.835,14.08.66,1.6,1.642,3.294-1.159,3.865-.067.013-.57.011-.264.1,6.413,1.843,2.3,4.917.826,7.518a19.614,19.614,0,0,1-3.417,3.774,6.389,6.389,0,0,1-3.353,1.926c-3.079-.235-3.072-2.935-3.6-4.9-5.927-22.206-12.111-44.343-17.964-66.569-1.6-6.084-3.446-12.106-4.823-18.25-.09-.4.016-.722-.174-.675-.089.022-.123.268-.194.468-3.1,11.04-5.751,22.138-8.513,33.211-5,18.066-9.356,36.3-14.426,54.344-2.074,7.377-3.525,14.9-5.769,22.232-2.781,2.365-5.24,2.246-7.3-.948.255-8.1,3.125-15.634,5.45-23.226,2.685-8.769,4.541-17.748,7.366-26.483a155.525,155.525,0,0,0,4.388-16.776c4.286-7.768,7.315-15.891,6.99-24.957,3.7-12.4,6.962-24.92,10.4-37.391.435-1.578,1.474-3.222-.121-4.769,7.708-2.849,10.83-1.45,13.164,6.035C2416.557,412.387,2420.028,423.743,2423.524,435.091Z" transform="translate(-2282.827 -367.71)" fill="#d4eafc"/>
      <path id="Path_8465" data-name="Path 8465" d="M2367.9,525.272c1.7,2.14,3.959,1.024,6.025,1.023,1.928-1.794,4.354-1.735,6.724-1.713,13.064.12,26.135-.407,39.192.307a7.033,7.033,0,0,0,4.384-.925c6.789.815,13.616.605,20.432.725,2.694.165,5.389-.246,8.083-.022a20.073,20.073,0,0,0,2.711.128c6.082-.313,12.176-.124,18.261-.44,4.564.393,9.137.081,13.7.207,2.368.065,4.784-.054,6.716,1.717,1.028.011,2.054.036,3.081.031,2.057-.009,3.9.4,3.981,2.92.094,2.847-1.9,3.252-4.162,3.251q-20.284,0-40.57.009-73.951,0-147.9-.049c-2.992,0-7.916,1.337-7.859-3.1.056-4.394,4.991-2.643,7.984-3.032a12.6,12.6,0,0,1,1.539-.015l3.188-.045c2.545-2.271,5.617-1.442,8.545-1.46.86.022,1.723.024,2.582-.021,1.1-.1,2.2.087,3.292.032a14.211,14.211,0,0,1,3.58-.049c4.051.624,6.891-.88,8.574-4.6.363.725,1.07,1.469,1.028,2.169-.228,3.762,1.649,4.738,5,4.2,1.493-.239,3.028-.22,4.544-.318,2.881-1.9,2.816-5.261,3.765-8.028,1.159-3.374,3-4.062,6.18-3.038,6.051,1.946,6.685,2.747,6.451,9.087C2366.93,524.725,2367.389,525.093,2367.9,525.272Z" transform="translate(-2284.612 -364.367)" fill="#c9eefd"/>
      <path id="Path_8466" data-name="Path 8466" d="M2451.108,527.911l-2.048.009c-1.2-2.371-.207-4.665.385-6.9,1.322-5,1.188-10.04.919-15.117a6.062,6.062,0,0,0-2.673-5.155c-1.54-3.471-4.067-6.877-.77-10.7,8.177-10.64,13.79-22.578,17.7-36.081,1.864,3.279,3.345,5.885,4.827,8.491,3.275,8.571,7.225,16.9,8.822,26.059a35.485,35.485,0,0,1,.463,10.684c-.61.626-1.4,1.333-2.2,1.119-8.234-2.214-12.286,5.261-18.407,7.908a3.127,3.127,0,0,0-1.59,2.5c.08.411.319.558.71.418,1.975-.7,4.461-2.887,5.872-.434,1.148,1.995-1.767,3.288-3.28,4.43a17.515,17.515,0,0,0-5.769,8.229C2453.416,525.112,2453.078,527.04,2451.108,527.911Z" transform="translate(-2280.62 -366.044)" fill="#004ae1"/>
      <path id="Path_8467" data-name="Path 8467" d="M2390.711,437.051a40.262,40.262,0,0,1-6.941,24.961c-2.779,3.169-2.026,7.811-4.608,11.068-3.408,1.983-4.211-.406-4.556-2.924-.5-3.655-.184-7.395-.969-11.027-.2-2.567.819-4.84,1.627-7.208.516-1.508,2.132-3.383-.389-4.755-1.585-.7-1.6-2.013-1.329-3.411a53.665,53.665,0,0,0,.866-9.539c.041-3.959,1.6-6.4,5.526-7.2,3.551-.669,5.1-2.152,3.13-5.961-1.691-3.267-1.638-6.953-1.016-10.529,1.285-7.392,1.141-14.576-2.575-21.354.069-1.09.009-2.288,1.672-2.112a62.768,62.768,0,0,0,6,3.685c3.291,1.572,4.586,3.793,3.169,7.3.307,1.687.544,3.491,2.914,1.756,1.491-1.354,3.365-1.155,5.161-1.265,1.831,4.195-.764,7.572-2.049,11.194-.344.582-.678,1.319-1.27,1.544-6.994,2.664-6.179,7.741-4.15,13.22C2392.8,428.718,2390.761,432.867,2390.711,437.051Z" transform="translate(-2282.605 -367.892)" fill="#232422"/>
      <path id="Path_8468" data-name="Path 8468" d="M2381.775,387.308c-1.247.143-.911,1.091-.944,1.853,1.124,2.966.25,4.639-3.048,4.748a1.448,1.448,0,0,0-1.482,1.663c-.034,9.389-.962,18.8.634,28.155-.107,1.717,2.305,3.319.249,5.126-4.964,2-9.607,1.019-14.092-1.5a14.867,14.867,0,0,1-4.238-8.242c-.329-4.48.08-8.792,2.942-12.518,2.124-4.115,2.757-8.775,4.653-12.962,1.343-2.962.136-3.988-2.63-4.438a6.58,6.58,0,0,0-5.751,1.3c-2.057,1.749-4.749,3.329-6.747.886-1.854-2.27.79-4.26,2.2-6.089.208-.27.456-.508.686-.76a64.116,64.116,0,0,1,5.186-4.871c3.474-2.647,5.588-2.087,7.349,1.978a8.8,8.8,0,0,0,2.646,3.6c3.5,2.794,6.491,2.339,9.212-1.058A6.184,6.184,0,0,1,2381.775,387.308Z" transform="translate(-2283.233 -368.141)" fill="#f6f6f6"/>
      <path id="Path_8469" data-name="Path 8469" d="M2450.952,526.709c1.719-7.032,4.828-13.145,12.283-16.953-4.2-.78-5.717,2.95-9.038,2.861.4-3.869.779-7.453,5.586-8.3a3.613,3.613,0,0,0,2.236-1.139c4.152-6.209,10.18-6.2,16.553-5.179.7,3.847-1.177,7.456-1.044,11.251-.491,6.583-2.4,12.468-8.108,16.489C2463.376,528.19,2457.118,526.581,2450.952,526.709Z" transform="translate(-2280.464 -364.842)" fill="#0042bd"/>
      <path id="Path_8470" data-name="Path 8470" d="M2355.069,385.235c-.871,2.154-3.091,3.535-3.527,6.025,1.826.436,3.914.432,4.783-.963,3.347-5.372,7.626-2.362,11.7-1.711,1.534.245,2.243.878,1.376,2.328-2.991,5-3.579,10.827-5.683,16.126-3.513-1.13-6.873-2.525-9.337-5.453-2.463-2.627-5.985-3.046-9.114-4.152-3.73-1.317-4.475-3.4-2.339-6.469,2.416-3.474,3.231-8.317,8.09-9.776C2351.979,382.93,2354.044,383.562,2355.069,385.235Z" transform="translate(-2283.479 -368.054)" fill="#2b2b2b"/>
      <path id="Path_8471" data-name="Path 8471" d="M2468.924,525.426c3.538-5.086,5.818-10.79,8.108-16.489,8.666.305,12.43,4.221,12.435,12.927,0,1.525.012,3.051.018,4.576C2482.644,525.847,2475.679,527.756,2468.924,525.426Z" transform="translate(-2279.967 -364.526)" fill="#e1f4fd"/>
      <path id="Path_8472" data-name="Path 8472" d="M2354.271,401.039c3.536,1.091,6.98,2.342,9.337,5.453-3.675,3.268-3.264,7.714-3.456,11.986-.836.729-1.245-2.822-2.739.047-2.9,5.577-6.511,10.793-9.2,16.514-3.154,1.919-2.567-.382-2.173-2.041,1.442-6.076,3.034-12.116,4.491-18.189.935-3.895,1.732-7.822,2.592-11.735Z" transform="translate(-2283.369 -367.506)" fill="#1e1f1d"/>
      <path id="Path_8473" data-name="Path 8473" d="M2354.831,385.515c-1.81-.889-5.7.31-4.052-4.045,1.74-.1,3.471-.228,4.312-2.142,1.527-2.157,3.936-2.041,6.168-2.469,1.447-.277,3.489.676,4.062-1.717l-.956-1.847c3.714-3.087,5.055-3.022,7.716.434.612.8.992,2.308,1.844,2.3,5.6-.063,4.425,3.989,4.61,7.245q.036.547.074,1.094c-.57,5.509-2.33,6.446-7.086,3.792-2.875-1.605-6.142-2.4-6.389-6.95-.171-3.175-2.8-2.118-4.538-.726C2358.606,382.075,2356.746,383.83,2354.831,385.515Z" transform="translate(-2283.24 -368.334)" fill="#fad5b7"/>
      <path id="Path_8474" data-name="Path 8474" d="M2395.125,408.847l2.832-10.524q.624-1.669,1.25-3.341c2.9-.7,2.706.937,2.146,2.846-3.806,12.973-6.634,26.223-11.073,39.011-.669-4.346.1-8.827-1.279-13.1C2391.572,418.994,2392.21,413.452,2395.125,408.847Z" transform="translate(-2282.175 -367.678)" fill="#0956e4"/>
      <path id="Path_8475" data-name="Path 8475" d="M2378.158,383.344c-2.956-.043-1.508-1.534-1.176-3.008.441-1.957.552-4.272-2.632-2.19-2.383,1.558-1.824-.929-2.2-1.727-1.766-3.72-4.164-5.436-8.158-3.051.9-5.365,4.917-5.277,8.812-4.694,5.273.789,7.858,3.729,7.618,7.924C2380.278,379.058,2379.009,381.129,2378.158,383.344Z" transform="translate(-2282.865 -368.407)" fill="#2b2a28"/>
      <path id="Path_8476" data-name="Path 8476" d="M2365.364,375.1c2.013,1.635,2.824,3.18-.793,3.155a35.3,35.3,0,0,0-9.437,1.032c-5,.718-7.649-.767-5.684-6.706Z" transform="translate(-2283.284 -368.292)" fill="#343230"/>
      <path id="Path_8477" data-name="Path 8477" d="M2392.812,399.523c-.951,1.641-1.8,4.618-3.8,3.562-1.612-.852.546-3.458.881-5.316C2391.715,396.949,2393.272,396.563,2392.812,399.523Z" transform="translate(-2282.191 -367.613)" fill="#135ad1"/>
      <path id="Path_8478" data-name="Path 8478" d="M2363.012,425.069c4.61,2.036,9.467,2.228,14.388,1.925a2.016,2.016,0,0,1,3.107.293c-6.454,1.124-3.364,6.673-4.507,10.168-.666,2.04.412,4.423-1.142,6.667-.721,1.043,1.01.409,1.644.484,1.453,5.173-2.453,9.087-2.774,13.383.219-.178.2-1.565,1.547-1.26a42.568,42.568,0,0,1,1.126,12.049c-.1,2.089.046,4.029,3,2.472.9.942.536,1.818-.131,2.679-2.226,1.73-5.988,2.1-5.516,6.234-.43,3.47,1.018,6.8.73,10.265a4.386,4.386,0,0,1-3.5,3.566c-2.4.447-4.773.605-7.015-.659-2.207-1.893-1.574-4.28-1.145-6.632-1.2-8.905-.048-17.726.945-26.555.953-8.489-1.181-16.634-2.8-24.834C2359.095,431.39,2360.467,428.113,2363.012,425.069Z" transform="translate(-2282.973 -366.842)" fill="#2b2b2a"/>
      <path id="Path_8479" data-name="Path 8479" d="M2324.37,526.934q-1,0-2,.009c-1.662-1.354-2.175-3.315-2.853-5.22-1.818-5.109-4.77-6.223-9.616-3.715-3.156-10.293,1.806-18.754,6.256-28.467,2.866,6.844,4.829,13.127,9.545,18.359,1.15-.765.5-2.779,2.4-3.12,2.595,6.143,7.019,11.182,11.658,16.06,1.171,4.824-.385,7.117-5.638,6.351a59.237,59.237,0,0,0-6.629-.252c-2.59-1.9-3.341-4.556-3.067-7.9C2323.816,521.865,2325.708,524.4,2324.37,526.934Z" transform="translate(-2284.386 -365.062)" fill="#014dde"/>
      <path id="Path_8480" data-name="Path 8480" d="M2363.129,485.739l1.291,5.956c.218,2.25,2.295,4.281.8,6.739-3.157,1.54-7.836,11.816-6.716,14.835.7,1.893,2.5,2.175,4.135,2.574,1.894.461,2.845-.671,3.388-2.295,1.462-4.375,2.313-8.91,3.507-13.359.414-1.163.709-2.363,1.095-3.537.536-2.256,2.053-4.044,2.917-6.143a.614.614,0,0,1,.059-.651c1.078-3.428.151-7.175,1.666-10.534a13.473,13.473,0,0,1,3.4-6.859q.516-1.09,1.035-2.178c.863-3.758,1.167-7.773,4.733-10.288q-4.534,17.008-9.069,34.015-4.388,16.39-8.811,32.771c-2.73,2.471-2.479.763-2.243-1.485.177-1.682,2.407-3.731,0-5.036a24.831,24.831,0,0,0-8.572-3.088c-1.568-.186-1.276,2.852-2.222,4.189-1.476,2.09.186,6.326-4.305,6.349Q2356.172,506.724,2363.129,485.739Z" transform="translate(-2283.273 -365.878)" fill="#065ae9"/>
      <path id="Path_8481" data-name="Path 8481" d="M2363.366,425.351q-1.019,5.122-2.038,10.245l-13.16-.939a1.682,1.682,0,0,1-.461-2.6c3.684-5.59,6.127-11.962,10.876-17.2l1.526,3.24Q2361.739,421.723,2363.366,425.351Z" transform="translate(-2283.326 -367.124)" fill="#090809"/>
      <path id="Path_8482" data-name="Path 8482" d="M2309.872,517.338c.612-5.144,3.787-3.505,6.582-2.382,5.136,2.066,4.655,7.159,5.886,11.317l-9.182,0C2311.922,523.346,2309.8,520.745,2309.872,517.338Z" transform="translate(-2284.359 -364.392)" fill="#0142b8"/>
      <path id="Path_8483" data-name="Path 8483" d="M2447.713,490.058c-.979,3.567.94,6.813,1.136,10.249,3.126,4.785,1.543,9.451-.338,14.11-2.62,2.347-5.771,1.911-8.68,1.149-4.99-1.306-5.093-5.519-.407-10.28-5.234,5.021-5.938,5.026-10.245.077,1.183-1.455,2.471-2.84,3.517-4.388.924-1.364,2.948-2.724,2.13-4.337-.744-1.464-3.061-1.118-4.728-1.434-1.1-.208-2.416.382-3.215-.769a.782.782,0,0,1,.771-1.1c6.419-.147,6.363-.12,4.708-6.293-1.429-5.33-1.992-11.379-10.183-9.782.333-.993.4-1.458.5-1.467,6.262-.576,6.246-.568,4.522-6.712-1.457-5.19-1.8-11.417-10.574-9.717,2.551-2.276,8.483,1,6.468-5.332.306-.517.61-.49.912,0l12.35,40.8a19.157,19.157,0,0,0,4.136-6.919l3.529-6.175C2446.347,484.2,2445.348,487.9,2447.713,490.058Z" transform="translate(-2281.412 -366.053)" fill="#0260f7"/>
      <path id="Path_8484" data-name="Path 8484" d="M2422.375,525.814c-.413,1.117,1.421,3.536-1.589,3.147-15.4-2-30.859-.358-46.281-.9-.848-.03-1.7-.007-2.55-.008-.106-8.8,3.391-16.817,5.492-25.125,4.321-17.084,8.876-34.11,13.356-51.154.078-.3.411-.526.624-.786,4.322,3.084,9.037,3.113,13.933,1.806,1.614-.431,3.23-.995,4.936-.393,2.475,2.446,2.482,5.9,3.3,8.9,4.227,15.6,8.592,31.156,12.639,46.8a5.284,5.284,0,0,1,.117,2.016C2423.136,514.872,2422.93,520.387,2422.375,525.814Z" transform="translate(-2282.645 -366.126)" fill="#e2f4fe"/>
      <path id="Path_8485" data-name="Path 8485" d="M2421.052,524.4c-2.168-5.705-1.517-10.849,3.036-15.213a4.392,4.392,0,0,1,3.018-3.162,3.24,3.24,0,0,1,1.985-2,5.044,5.044,0,0,1,3.493,1.848c1.475,1.453,3.106,1.216,3.569-.611,1.092-4.316,4.064-2.883,7.06-2.589-.818,2.209-3.317,2.2-4.5,3.682-.9,1.14-2.546,1.9-1.8,3.818.737,1.885,1.859,3.181,4.111,3.115,2.2-.066,4.408-.013,6.612-.012,1.668,4.548-.395,9.05-6.1,13.308-5.265.073-10.535.026-15.793.275C2423.534,526.961,2422.333,525.757,2421.052,524.4Z" transform="translate(-2281.322 -364.712)" fill="#004ee6"/>
      <path id="Path_8486" data-name="Path 8486" d="M2409.669,453.929c-4.365,1.293-8.7,2.516-13.377,2.158-2.9-.222-4.88-1.126-5.386-4.187,2.4-9.777,4.827-19.545,7.151-29.339.4-1.673.728-3.283,2.01-4.521,1.4.43,1.488,1.663,1.809,2.822,2.6,9.38,5.117,18.782,7.647,28.18C2409.952,450.636,2410.938,452.263,2409.669,453.929Z" transform="translate(-2282.122 -367.036)" fill="#fcfdfc"/>
      <path id="Path_8487" data-name="Path 8487" d="M2409.423,454.024c-2.683-12.1-6.029-24.026-9.6-35.889q.159-1.728.319-3.457l.707-.094q5.206,19.129,10.41,38.259c4.674,17.236,9.3,34.487,14.06,51.7.383,1.385-.32,3.762,2.344,3.9l-3.018,3.162c-.722-7.339-3.367-14.211-5.237-21.265C2416.188,478.206,2412.761,466.127,2409.423,454.024Z" transform="translate(-2281.875 -367.132)" fill="#0e6ef3"/>
      <path id="Path_8488" data-name="Path 8488" d="M2412.173,441.755l-4.247-16.607c4.969-2.45,6.085-1.93,8.53,3.975.145,2.725,1.231,5.223,1.946,7.806,1.485,5.361.828,6.143-4.8,5.323A6.9,6.9,0,0,1,2412.173,441.755Z" transform="translate(-2281.651 -366.878)" fill="#f9fbfa"/>
      <path id="Path_8489" data-name="Path 8489" d="M2408.01,423.488c-3.705-4.473-2.209-10.536-4.628-15.428-.127-.256,1.065-1.164,1.645-1.769,2.387-2,3.692-1.3,4.781,1.51,1.406,3.624,1.954,7.48,3.36,11.088.615,1.577,1.393,3.407-.049,4.738C2411.587,425.043,2409.687,424.718,2408.01,423.488Z" transform="translate(-2281.778 -367.392)" fill="#fafbfb"/>
      <path id="Path_8490" data-name="Path 8490" d="M2408.065,423.675c4.872.7,6-1.141,4.142-5.616a48.18,48.18,0,0,1-2.714-9.2c-.567-2.905-2.243-2.892-4.412-2.38l-3.68-.389c5.187-1.3,7.891-3.158,6.461-7.731q4.611,15.769,9.223,31.539a.805.805,0,0,1-1.26.062c-.757-4.782-3.975-4.94-7.72-4.109Q2408.087,424.763,2408.065,423.675Z" transform="translate(-2281.833 -367.58)" fill="#307eee"/>
      <path id="Path_8491" data-name="Path 8491" d="M2415.531,429.112l1.261-.062q3.673,12.831,7.347,25.663c-.3,0-.608,0-.913,0a23.659,23.659,0,0,1-1.137-2.791c-1.257-4.633-1.719-9.992-8.829-8.825-.311.05-.8-.965-1.2-1.484l6.576-.549C2417.585,437.019,2416.559,433.065,2415.531,429.112Z" transform="translate(-2281.538 -366.732)" fill="#1375f1"/>
      <path id="Path_8492" data-name="Path 8492" d="M2440.963,526.667c1.717-4.58,6.7-7.664,6.1-13.308.9-4.728,1.82-9.454,1.115-14.305,4.171-.035,3.689,3.359,3.926,5.786a48.172,48.172,0,0,1-2.924,21.835Z" transform="translate(-2280.74 -364.799)" fill="#0041b7"/>
      <path id="Path_8493" data-name="Path 8493" d="M2323.98,526.177c-1.533-2.951-1-6.011-.08-9.226l3.2,9.232Z" transform="translate(-2283.997 -364.305)" fill="#0142b8"/>
      <path id="Path_8494" data-name="Path 8494" d="M2380.1,428.286l-3.107-.293c-.583-1.346-2.119-2.173-2.093-3.85,2.252-2.467,2.535-5.4,2.164-8.559-.634-5.392-1.3-10.787-1.537-16.212-.106-2.5-.252-5.117,1.522-7.271,3.6,1.384,2.729-1.532,3.114-3.239,5.513,5.576,4.471,12.622,3.573,19.2-.792,5.8-1.051,11.112,2.562,15.99,1.386,1.871.738,2.63-1.267,3.029C2383.373,427.411,2381.742,427.88,2380.1,428.286Z" transform="translate(-2282.564 -367.842)" fill="#e8e8e8"/>
      <path id="Path_8495" data-name="Path 8495" d="M2395.178,408.47c-1,4.095-2.1,8.169-2.974,12.292a2.892,2.892,0,0,1-3.15,2.6c-.416-1.474-.723-2.987-1.269-4.411-1.391-3.629-.826-6.187,3.259-7.569C2392.575,410.865,2393.809,409.467,2395.178,408.47Z" transform="translate(-2282.227 -367.301)" fill="#d9e7f6"/>
      <path id="Path_8496" data-name="Path 8496" d="M2374.944,456.2l-2.253,3.32-.64-.2q2.061-7.622,4.123-15.244c3.078.38,2.08,2.3,1.641,4.133C2377.149,450.99,2375.084,453.25,2374.944,456.2Z" transform="translate(-2282.643 -366.317)" fill="#0e5cb9"/>
      <path id="Path_8497" data-name="Path 8497" d="M2377.088,392.043c-.617,8.156,1.075,16.145,1.776,24.206.235,2.686.691,5.3-1.4,7.652-1.007,1.132-1.645.7-2.523.185-1.579-2.3-.935-4.9-1.107-7.418-.553-8.086,1.52-16.145-.292-24.33C2372.966,389.748,2375.761,391.471,2377.088,392.043Z" transform="translate(-2282.603 -367.785)" fill="#2f2f2e"/>
      <path id="Path_8498" data-name="Path 8498" d="M2364.707,497.03c.024-2.088-3.308-3.813-.669-6.186l6.906.078c.976,1.746.728,3.551.263,5.367l-.552,2.848C2368.331,499.4,2365.707,500.509,2364.707,497.03Z" transform="translate(-2282.892 -365.026)" fill="#416377"/>
      <path id="Path_8499" data-name="Path 8499" d="M2378.043,472.129q-1.063,3.527-2.127,7.056c-1.539,1.313-2.663.251-3.812-.666C2371.192,473.7,2374.806,473.09,2378.043,472.129Z" transform="translate(-2282.645 -365.543)" fill="#3e647a"/>
      <path id="Path_8500" data-name="Path 8500" d="M2372.1,478.347q1.906.333,3.813.666a35.3,35.3,0,0,1-2.938,10.337Q2372.537,483.848,2372.1,478.347Z" transform="translate(-2282.641 -365.371)" fill="#cfe5f5"/>
      <path id="Path_8501" data-name="Path 8501" d="M2371.008,496.321c-.447-1.772-1.252-3.526-.263-5.367q1.109-.631,2.222-1.263C2372.759,492.032,2372.66,494.406,2371.008,496.321Z" transform="translate(-2282.691 -365.058)" fill="#a3c4e2"/>
      <path id="Path_8502" data-name="Path 8502" d="M2364.89,496.869c1.524,2,4.129.945,5.948,2.108-1.379,5.267-2.838,10.516-4.1,15.81-.565,2.356-1.346,2.782-3.8,1.948-7.428-2.522-7.488-2.362-5.237-9.528.764-2.434,1.863-4.81,2.263-7.3C2360.475,496.69,2362.322,496.374,2364.89,496.869Z" transform="translate(-2283.075 -364.865)" fill="#dbeffb"/>
    </g>
  </g>
</svg>
