<svg id="export-excel" xmlns="http://www.w3.org/2000/svg" width="18.811" height="18.811" viewBox="0 0 18.811 18.811">
  <path id="Path_14851" data-name="Path 14851" d="M22.629,3H16V5.159h2.193V6.628H16V8.064h2.17V9.511H16v1.447h2.17v1.447H16v1.447h2.17V15.3H16v2.17h6.629a.62.62,0,0,0,.606-.629V3.629A.62.62,0,0,0,22.629,3Zm-.841,12.3H18.894V13.852h2.894Zm0-2.894H18.894V10.958h2.894Zm0-2.894H18.894V8.064h2.894Zm0-2.894H18.894V5.17h2.894Z" transform="translate(-4.424 -0.83)" fill="#fff"/>
  <path id="Path_14852" data-name="Path 14852" d="M0,2.09V16.721l10.852,2.089V0Zm6.864,10.99L5.6,10.694a2.117,2.117,0,0,1-.148-.491h-.02a3.715,3.715,0,0,1-.169.512L4,13.081H2.031L4.366,9.417,2.23,5.752H4.238l1.048,2.2a3.839,3.839,0,0,1,.22.618h.02q.062-.215.23-.639L6.921,5.752H8.76l-2.2,3.633L8.821,13.08Z" fill="#fff"/>
</svg>
