<svg id="图层_x0020_1" xmlns="http://www.w3.org/2000/svg" width="73.6" height="73.6" viewBox="0 0 73.6 73.6">
  <circle id="Ellipse_2" data-name="Ellipse 2" cx="36.8" cy="36.8" r="36.8" transform="translate(0 0)" fill="#0cf"/>
  <path id="Path_36" data-name="Path 36" d="M22.4,8.667l14.394,14.7h0V39.5H28.018V29.111c0-2.681-2.53-4.875-5.623-4.875s-5.623,2.193-5.623,4.875V39.5H8V23.365H8ZM1.337,23.934a2.281,2.281,0,0,0,3.226.012L22.248,6.3,39.8,23.808a2.279,2.279,0,0,0,3.226-.012,2.311,2.311,0,0,0-.012-3.243L23.887,1.473a2.353,2.353,0,0,0-3.272-.005L1.349,20.691a2.309,2.309,0,0,0-.012,3.243Z" transform="translate(14.323 16.195)" fill="#fff" fill-rule="evenodd"/>
</svg>
