<svg xmlns="http://www.w3.org/2000/svg" width="73.6" height="73.6" viewBox="0 0 73.6 73.6">
  <g id="Group_3" data-name="Group 3" transform="translate(-667 -738)">
    <circle id="Ellipse_3" data-name="Ellipse 3" cx="36.8" cy="36.8" r="36.8" transform="translate(667 738)" fill="#ea7b7b"/>
    <g id="briefcase_1_" data-name="briefcase (1)" transform="translate(682 725.875)">
      <path id="Path_1" data-name="Path 1" d="M36.713,147.288a23.828,23.828,0,0,1-9.783,4.21,5.4,5.4,0,0,1-10.69,0,23.828,23.828,0,0,1-9.783-4.21C2.293,144.165,0,139.979,0,135.5v22.977a6.236,6.236,0,0,0,6.229,6.229H36.942a6.236,6.236,0,0,0,6.229-6.229V135.5C43.171,139.979,40.877,144.165,36.713,147.288Z" transform="translate(0 -96.49)" fill="#fff"/>
      <path id="Path_2" data-name="Path 2" d="M43.656,52.413v-2.3a1.265,1.265,0,0,1,1.265-1.265H53.19a1.265,1.265,0,0,1,1.265,1.265v2.3c7.886-1.712,13.656-7.072,13.656-13.4V37.745H57.941V35.232a5.113,5.113,0,0,0-5.107-5.107H45.278a5.113,5.113,0,0,0-5.107,5.107v2.513H30V39.01C30,45.341,35.771,50.7,43.656,52.413ZM42.7,35.232a2.58,2.58,0,0,1,2.577-2.577h7.556a2.58,2.58,0,0,1,2.577,2.577v2.513H42.7V35.232Z" transform="translate(-27.47 0)" fill="#fff"/>
      <path id="Path_3" data-name="Path 3" d="M227.7,282.215h-5.739v2.87a2.87,2.87,0,1,0,5.739,0Z" transform="translate(-203.249 -230.834)" fill="#fff"/>
    </g>
  </g>
</svg>
