<svg xmlns="http://www.w3.org/2000/svg" width="73.6" height="73.6" viewBox="0 0 73.6 73.6">
  <g id="Group_4" data-name="Group 4" transform="translate(-923.2 -691)">
    <circle id="Ellipse_2" data-name="Ellipse 2" cx="36.8" cy="36.8" r="36.8" transform="translate(923.2 691)" fill="#6cd384"/>
    <g id="users-three-Filled" transform="translate(896.197 644.777)">
      <path id="users-three-Filled-2" data-name="users-three-Filled" d="M81.452,71.842A7.807,7.807,0,0,1,75.935,79.3a12.493,12.493,0,0,0,.55-3.678A12.662,12.662,0,0,0,70.291,64.74a7.96,7.96,0,0,1,3.34-.74,7.834,7.834,0,0,1,7.82,7.842Zm-1.585,9.7a3.478,3.478,0,0,0-2.642.317,7.033,7.033,0,0,1-2.938.866,10.777,10.777,0,0,1-1.48,1.8,11.466,11.466,0,0,1,7.736,9.068H82a2.6,2.6,0,0,0,2.3-1.331A5.394,5.394,0,0,0,84.94,89.7V88.2A6.85,6.85,0,0,0,79.867,81.543ZM57.314,64.74a7.96,7.96,0,0,0-3.34-.74,7.826,7.826,0,0,0-2.3,15.3,12.493,12.493,0,0,1-.55-3.678A12.662,12.662,0,0,1,57.315,64.74ZM54.8,84.523a10.777,10.777,0,0,1-1.48-1.8,7.033,7.033,0,0,1-2.938-.866,3.478,3.478,0,0,0-2.642-.317A6.85,6.85,0,0,0,42.667,88.2v1.5A5.394,5.394,0,0,0,43.3,92.26a2.588,2.588,0,0,0,2.283,1.331h1.479A11.466,11.466,0,0,1,54.8,84.523ZM71.37,87.4a4.93,4.93,0,0,0-1.12-.148,4.292,4.292,0,0,0-2.092.55,9.022,9.022,0,0,1-8.708,0,4.292,4.292,0,0,0-2.092-.55,4.931,4.931,0,0,0-1.12.148,8.36,8.36,0,0,0-6.172,8.095v1.839a6.5,6.5,0,0,0,.782,3.086,3.076,3.076,0,0,0,2.769,1.628H73.991a3.076,3.076,0,0,0,2.769-1.628,6.5,6.5,0,0,0,.782-3.086V95.493A8.36,8.36,0,0,0,71.37,87.4Zm1.944-11.773A9.511,9.511,0,1,0,63.8,85.136,9.511,9.511,0,0,0,73.315,75.625Z" transform="translate(0 0)" fill="#fff"/>
    </g>
  </g>
</svg>
