<svg width="33" height="19" viewBox="0 0 33 19" fill="none" xmlns="http://www.w3.org/2000/svg">
<path d="M0.499163 17.9142H2.97319L3.61982 17.1737V14.8466H16.5803V17.35L17.3955 18.408H19.6727L20.235 17.35L20.034 11.6658L19.5034 7.22922H20.2344C20.2344 7.22922 20.5381 6.87205 20.5381 6.48412C20.5381 6.09619 20.2344 5.6775 20.2344 5.6775H17.9578C17.9578 5.6775 17.4233 3.27687 16.7767 1.85749C16.13 0.438119 15.3713 0 15.3713 0H5.50338C5.50338 0 4.71624 0.308604 4.04138 1.72798C3.36653 3.14735 2.80445 5.6775 2.80445 5.6775H0.274258C0.200135 5.73959 0.137368 5.82071 0.0900899 5.91549C0.0428115 6.01027 0.0121055 6.11655 0 6.22732C0 6.54463 0.274258 6.94713 0.274258 6.94713H1.23016L0.396715 11.4886L0.0493629 17.1735L0.499163 17.9142Z" fill="white"/>
<path d="M5.46045 1.42969L4.16284 5.74346L4.81156 6.88276L15.6247 7.18024L16.5979 6.33942L15.4734 1.42969H5.46045Z" fill="url(#paint0_linear_2589_18099)"/>
<path d="M18.22 4.9285H18.9119L19.7121 2.13447H22.2423V7.61386H20.1663L20.5772 14.5581H23.1074L22.8046 1.375H19.1713L18.22 4.9285Z" fill="white"/>
<path d="M6.88519 6.11043C7.5089 6.11043 8.01452 5.47622 8.01452 4.69389C8.01452 3.91155 7.5089 3.27734 6.88519 3.27734C6.26148 3.27734 5.75586 3.91155 5.75586 4.69389C5.75586 5.47622 6.26148 6.11043 6.88519 6.11043Z" fill="white"/>
<path d="M11.4025 2.0625H9.6278C9.36049 2.0625 9.1438 2.3343 9.1438 2.66959C9.1438 3.00488 9.36049 3.27668 9.6278 3.27668H11.4025C11.6698 3.27668 11.8865 3.00488 11.8865 2.66959C11.8865 2.3343 11.6698 2.0625 11.4025 2.0625Z" fill="white"/>
<path d="M4.54609 13.1526C5.39255 13.1526 6.07875 12.4731 6.07875 11.6349C6.07875 10.7967 5.39255 10.1172 4.54609 10.1172C3.69962 10.1172 3.01343 10.7967 3.01343 11.6349C3.01343 12.4731 3.69962 13.1526 4.54609 13.1526Z" fill="url(#paint1_linear_2589_18099)"/>
<path d="M16.0007 13.1526C16.8471 13.1526 17.5333 12.4731 17.5333 11.6349C17.5333 10.7967 16.8471 10.1172 16.0007 10.1172C15.1542 10.1172 14.468 10.7967 14.468 11.6349C14.468 12.4731 15.1542 13.1526 16.0007 13.1526Z" fill="url(#paint2_linear_2589_18099)"/>
<path d="M12.3708 10.3203H8.17614C7.90883 10.3203 7.69214 10.5921 7.69214 10.9274V12.1416C7.69214 12.4769 7.90883 12.7487 8.17614 12.7487H12.3708C12.6381 12.7487 12.8548 12.4769 12.8548 12.1416V10.9274C12.8548 10.5921 12.6381 10.3203 12.3708 10.3203Z" fill="url(#paint3_linear_2589_18099)"/>
<path d="M26.8037 3.8014C26.0349 3.8014 25.4112 3.08153 25.4112 2.19354C25.4112 1.30581 26.0349 0.585938 26.8037 0.585938C27.5722 0.585938 28.1963 1.30581 28.1963 2.19354C28.1963 3.08153 27.5722 3.8014 26.8037 3.8014Z" fill="white"/>
<path d="M24.6448 7.36671C24.7515 6.98591 25.1042 6.77739 25.4362 6.89996L26.7904 7.40647L26.5833 5.58384C26.5428 5.22616 26.6265 4.86446 26.817 4.57824C27.0077 4.29235 27.2889 4.10536 27.5985 4.05853C27.8643 4.01816 28.1208 4.08436 28.3346 4.23107C28.4993 4.34407 31.038 6.19238 31.038 6.19238C31.1982 6.31223 31.3029 6.50932 31.322 6.72809C31.3413 6.94717 31.273 7.16435 31.1374 7.3187L29.3828 9.31016L29.5643 10.9076L29.9689 13.2903L31.9081 15.942C32.1803 16.3147 32.1397 16.8721 31.8168 17.1867C31.6733 17.3266 31.4976 17.3949 31.3236 17.3949C31.1058 17.3949 30.8897 17.2884 30.738 17.0813L28.6714 14.2546C28.5876 14.14 28.5305 14.0023 28.5053 13.855L28.1959 12.0324L27.5543 13.0613L27.3572 17.1154C27.3348 17.5859 26.997 17.9495 26.594 17.9495C26.5796 17.9495 26.5652 17.9492 26.5507 17.9482C26.1286 17.9208 25.8056 17.5039 25.8297 17.0168L26.039 12.7052C26.0469 12.537 26.0966 12.3753 26.1814 12.2385L27.1603 10.6682L26.9709 8.99958L25.0488 8.28084C24.7184 8.15725 24.5374 7.74815 24.6448 7.36671ZM29.6967 6.91842L29.0567 6.44002L29.178 7.50691L29.6967 6.91842Z" fill="white"/>
<defs>
<linearGradient id="paint0_linear_2589_18099" x1="10.3804" y1="1.42969" x2="10.3804" y2="7.18024" gradientUnits="userSpaceOnUse">
<stop stop-color="#B9BCFB"/>
<stop offset="1" stop-color="#835BCD"/>
</linearGradient>
<linearGradient id="paint1_linear_2589_18099" x1="4.54609" y1="10.1172" x2="4.54609" y2="13.1526" gradientUnits="userSpaceOnUse">
<stop stop-color="#B9BCFB"/>
<stop offset="1" stop-color="#835BCD"/>
</linearGradient>
<linearGradient id="paint2_linear_2589_18099" x1="16.0007" y1="10.1172" x2="16.0007" y2="13.1526" gradientUnits="userSpaceOnUse">
<stop stop-color="#B9BCFB"/>
<stop offset="1" stop-color="#835BCD"/>
</linearGradient>
<linearGradient id="paint3_linear_2589_18099" x1="10.2735" y1="10.3203" x2="10.2735" y2="12.7487" gradientUnits="userSpaceOnUse">
<stop stop-color="#B9BCFB"/>
<stop offset="1" stop-color="#835BCD"/>
</linearGradient>
</defs>
</svg>
