<svg xmlns="http://www.w3.org/2000/svg" width="22.07" height="22.07" viewBox="0 0 22.07 22.07">
  <g id="Layer_8" data-name="Layer 8" transform="translate(-2 -2)">
    <path id="Path_26013" data-name="Path 26013" d="M7.518,5.941V2H15.4V5.941a.788.788,0,0,1-.788.788H8.306A.788.788,0,0,1,7.518,5.941ZM6.729,24.07H19.341V21.359H6.729Zm0-4.288H19.341V18.206H6.729Zm16.553-12.5L19.633,2.859A2.365,2.365,0,0,0,17.812,2h-.836V5.941a2.365,2.365,0,0,1-2.365,2.365H8.306A2.365,2.365,0,0,1,5.941,5.941V2H4.365A2.365,2.365,0,0,0,2,4.365V21.706A2.365,2.365,0,0,0,4.365,24.07h.788V16.188a2.365,2.365,0,0,1,2.365-2.365H18.553a2.365,2.365,0,0,1,2.365,2.365V24.07h.788a2.365,2.365,0,0,0,2.365-2.365V9.031a2.365,2.365,0,0,0-.788-1.75ZM18.553,15.4H7.518a.788.788,0,0,0-.788.788v.441H19.341v-.441A.788.788,0,0,0,18.553,15.4Z" transform="translate(0)" fill="#023e8a"/>
  </g>
</svg>
