<svg width="23" height="29" viewBox="0 0 23 29" fill="none" xmlns="http://www.w3.org/2000/svg">
<path d="M22.3708 17.8885C22.3708 23.8302 17.5365 28.6641 11.5952 28.6641H7.78081C7.14872 28.6641 6.63649 28.152 6.63649 27.5199V27.1384C6.63649 26.5063 7.14865 25.9941 7.78081 25.9941H11.5952C16.0644 25.9941 19.7007 22.3578 19.7007 17.8885C19.7007 13.4193 16.0644 9.78298 11.5952 9.78298H4.55789L9.40447 14.6296C9.92502 15.1499 9.92502 15.997 9.40447 16.5174C8.89936 17.0221 8.02029 17.0214 7.51632 16.5174L0.391105 9.39201C0.13896 9.13986 0 8.80459 0 8.4479C0 8.09146 0.13896 7.756 0.391105 7.50398L7.51669 0.378264C8.02067 -0.126088 8.90049 -0.126088 9.40453 0.378264C9.92508 0.898497 9.92508 1.74574 9.40453 2.26591L4.55795 7.11287H11.5952C17.5365 7.11287 22.3708 11.947 22.3708 17.8885Z" fill="white"/>
</svg>
